HIERARCHY
ROOT Hips
{
 OFFSET 0.000000 0.000000 0.000000
 CHANNELS 6 Xposition Yposition Zposition Yrotation Xrotation Zrotation
 JOINT Chest
 {
  OFFSET 0.000000 11.395451 -0.039534
  CHANNELS 3 Yrotation Xrotation Zrotation
  JOINT Chest2
  {
   OFFSET 0.000000 9.398669 0.071813
   CHANNELS 3 Yrotation Xrotation Zrotation
   JOINT Chest3
   {
    OFFSET 0.000000 8.489801 0.000000
    CHANNELS 3 Yrotation Xrotation Zrotation
    JOINT Chest4
    {
     OFFSET 0.000000 8.489801 0.000000
     CHANNELS 3 Yrotation Xrotation Zrotation
     JOINT Neck
     {
      OFFSET 0.000000 12.404889 0.000000
      CHANNELS 3 Yrotation Xrotation Zrotation
      JOINT Head
      {
       OFFSET 0.000000 8.903270 0.092239
       CHANNELS 3 Yrotation Xrotation Zrotation
       End Site
       {
        OFFSET 0.000000 17.592497 0.007158
       }
      }
     }
     JOINT RightCollar
     {
      OFFSET -3.196775 6.966722 0.000000
      CHANNELS 3 Yrotation Xrotation Zrotation
      JOINT RightShoulder
      {
       OFFSET -15.955896 0.000000 0.000000
       CHANNELS 3 Yrotation Xrotation Zrotation
       JOINT RightElbow
       {
        OFFSET -24.792472 0.000000 0.000000
        CHANNELS 3 Yrotation Xrotation Zrotation
        JOINT RightWrist
        {
         OFFSET -20.900115 0.000000 0.025002
         CHANNELS 3 Yrotation Xrotation Zrotation
         End Site
         {
          OFFSET -16.056692 0.000000 0.000000
         }
        }
       }
      }
     }
     JOINT LeftCollar
     {
      OFFSET 3.196775 6.966722 0.000000
      CHANNELS 3 Yrotation Xrotation Zrotation
      JOINT LeftShoulder
      {
       OFFSET 15.955896 0.000000 0.000000
       CHANNELS 3 Yrotation Xrotation Zrotation
       JOINT LeftElbow
       {
        OFFSET 24.792472 0.000000 0.000000
        CHANNELS 3 Yrotation Xrotation Zrotation
        JOINT LeftWrist
        {
         OFFSET 20.900115 0.000000 0.025002
         CHANNELS 3 Yrotation Xrotation Zrotation
         End Site
         {
          OFFSET 16.056692 0.000000 0.000000
         }
        }
       }
      }
     }
    }
   }
  }
 }
 JOINT RightHip
 {
  OFFSET -9.568995 0.193718 0.019767
  CHANNELS 3 Yrotation Xrotation Zrotation
  JOINT RightKnee
  {
   OFFSET 0.000000 -56.649296 0.015402
   CHANNELS 3 Yrotation Xrotation Zrotation
   JOINT RightAnkle
   {
    OFFSET 0.000000 -41.365147 0.021264
    CHANNELS 3 Yrotation Xrotation Zrotation
    JOINT RightToe
    {
     OFFSET 0.000000 -7.465940 17.672538
     CHANNELS 3 Yrotation Xrotation Zrotation
     End Site
     {
      OFFSET 0.000000 -1.736315 7.837145
     }
    }
   }
  }
 }
 JOINT LeftHip
 {
  OFFSET 9.568995 0.193718 0.019767
  CHANNELS 3 Yrotation Xrotation Zrotation
  JOINT LeftKnee
  {
   OFFSET 0.000000 -56.649296 0.015402
   CHANNELS 3 Yrotation Xrotation Zrotation
   JOINT LeftAnkle
   {
    OFFSET 0.000000 -41.365147 0.021264
    CHANNELS 3 Yrotation Xrotation Zrotation
    JOINT LeftToe
    {
     OFFSET 0.000000 -7.465940 17.672538
     CHANNELS 3 Yrotation Xrotation Zrotation
     End Site
     {
      OFFSET 0.000000 -1.736315 7.837145
     }
    }
   }
  }
 }
}
MOTION
Frames: 11
Frame Time: 0.016667
14.340087 106.471862 194.397991 -116.627281 -9.711552 -0.411227 -1.340395 5.026934 -1.047725 -0.583780 2.237204 -0.450661 -0.583780 2.237204 -0.450661 -0.436129 1.678336 -0.335815 3.630336 17.399830 0.064475 6.682869 -3.795700 -1.124061 0.694559 3.586444 11.108807 4.313299 -7.471008 75.702040 3.408892 -1.945723 -0.360231 -4.064213 2.875157 2.806328 -2.125889 1.259163 -7.488042 0.878050 -8.852818 -75.321230 -1.278685 -4.728696 1.126067 4.158463 2.539135 -2.527981 6.737975 14.973303 -0.820893 -1.583283 1.121423 -0.202384 -10.670923 -8.244028 0.863864 0.000000 0.000000 0.000000 0.356479 13.335158 -0.211470 0.252496 5.396957 0.174147 0.973975 -10.356063 0.925660 0.000000 -0.000000 0.000000
14.419496 106.463308 194.379954 -116.596593 -9.650236 -0.419062 -1.315730 4.993157 -1.008697 -0.573333 2.222027 -0.433701 -0.573332 2.222028 -0.433701 -0.428368 1.666931 -0.323149 3.624053 17.417694 0.037053 6.680010 -3.761294 -1.171589 0.672337 3.587569 11.020795 4.419157 -7.345103 75.727630 3.385316 -1.939479 -0.382519 -4.009519 2.884461 2.819609 -2.143307 1.271992 -7.540301 0.831283 -8.897687 -75.444666 -1.381260 -4.732445 1.117763 4.147585 2.531358 -2.486191 6.763091 14.833752 -0.783451 -1.733122 1.178306 -0.208874 -10.581680 -8.221664 0.855793 0.000000 -0.000000 -0.000000 0.321365 13.207955 -0.188035 0.261014 5.450322 0.185409 0.975134 -10.353119 0.897778 0.000000 -0.000000 0.000000
14.498906 106.454754 194.361917 -116.565919 -9.588916 -0.426861 -1.291054 4.959340 -0.969726 -0.562875 2.206836 -0.416763 -0.562875 2.206837 -0.416763 -0.420598 1.655514 -0.310500 3.617758 17.435598 0.009656 6.677114 -3.726811 -1.219058 0.650138 3.588776 10.932779 4.525075 -7.219324 75.753607 3.361651 -1.933289 -0.404731 -3.954783 2.893773 2.832685 -2.160740 1.284866 -7.592549 0.784653 -8.942520 -75.568149 -1.483830 -4.736028 1.109400 4.136659 2.523718 -2.444388 6.788123 14.694168 -0.746190 -1.882996 1.235099 -0.215664 -10.492453 -8.199257 0.847745 -0.000000 0.000000 -0.000000 0.286230 13.080756 -0.164558 0.269510 5.503690 0.196685 0.976295 -10.350174 0.869896 0.000000 0.000000 0.000000
14.576152 106.449121 194.343907 -116.533771 -9.532651 -0.433381 -1.267629 4.929139 -0.934194 -0.552922 2.193268 -0.401325 -0.552922 2.193268 -0.401325 -0.413200 1.645316 -0.298972 3.611623 17.452837 -0.015863 6.673888 -3.693657 -1.263146 0.627478 3.591849 10.852556 4.634597 -7.103507 75.775405 3.323502 -1.939661 -0.434068 -3.905216 2.905193 2.847072 -2.177069 1.296235 -7.643542 0.744498 -8.983626 -75.679676 -1.586752 -4.729438 1.098539 4.124348 2.514007 -2.403635 6.807287 14.568508 -0.712146 -2.021103 1.286288 -0.222264 -10.409610 -8.177765 0.840037 0.000000 0.000000 0.000000 0.246584 12.961780 -0.142363 0.280441 5.554807 0.206864 0.977633 -10.346113 0.841841 0.000000 -0.000000 0.000000
14.650291 106.448083 194.325777 -116.499177 -9.484318 -0.437992 -1.245009 4.904806 -0.903626 -0.543256 2.182326 -0.388062 -0.543256 2.182326 -0.388062 -0.406007 1.637092 -0.289071 3.606032 17.468682 -0.038478 6.670710 -3.663228 -1.302129 0.604886 3.596637 10.784473 4.756368 -7.001243 75.790955 3.257856 -1.968228 -0.476751 -3.864107 2.920690 2.865350 -2.191931 1.305042 -7.691769 0.712203 -9.020707 -75.774342 -1.693806 -4.704279 1.082555 4.109093 2.500323 -2.363857 6.817883 14.465009 -0.682752 -2.143663 1.328936 -0.228232 -10.334364 -8.157905 0.833028 0.000000 -0.000000 -0.000000 0.195486 12.855018 -0.122994 0.298655 5.603994 0.215692 0.980364 -10.340974 0.812672 0.000000 0.000000 0.000000
14.722268 106.449966 194.307674 -116.463102 -9.441043 -0.441329 -1.223643 4.884100 -0.876474 -0.534100 2.173011 -0.376290 -0.534100 2.173011 -0.376290 -0.399189 1.630089 -0.280284 3.600604 17.483850 -0.059220 6.667212 -3.634151 -1.337744 0.581804 3.603259 10.724190 4.881693 -6.908884 75.802213 3.177675 -2.009465 -0.526238 -3.828138 2.938302 2.885012 -2.205683 1.312347 -7.738745 0.686309 -9.054030 -75.857046 -1.801147 -4.669015 1.063943 4.092450 2.484558 -2.325108 6.822667 14.375450 -0.656468 -2.254441 1.366015 -0.233845 -10.265497 -8.138976 0.826343 -0.000000 0.000000 0.000000 0.139904 12.756479 -0.104876 0.319307 5.650937 0.223433 0.983265 -10.334717 0.783331 0.000000 -0.000000 -0.000000
14.792751 106.452662 194.290059 -116.426960 -9.399258 -0.444045 -1.206141 4.863937 -0.851510 -0.526633 2.163952 -0.365445 -0.526633 2.163952 -0.365445 -0.393633 1.623281 -0.272186 3.594371 17.499802 -0.079322 6.661973 -3.603689 -1.371862 0.556113 3.613881 10.666479 4.988098 -6.825370 75.810547 3.107561 -2.047083 -0.570733 -3.792643 2.954210 2.899990 -2.218293 1.319772 -7.787773 0.668856 -9.080752 -75.930474 -1.897695 -4.638935 1.047997 4.077758 2.470154 -2.288657 6.824049 14.289099 -0.631846 -2.352960 1.400879 -0.239641 -10.205722 -8.119821 0.819201 0.000000 -0.000000 0.000000 0.096205 12.662406 -0.084707 0.330316 5.692416 0.229745 0.982848 -10.326122 0.756465 0.000000 0.000000 0.000000
14.862268 106.455676 194.273279 -116.390546 -9.356318 -0.446667 -1.193627 4.842169 -0.828352 -0.521362 2.154196 -0.355352 -0.521362 2.154195 -0.355352 -0.389723 1.615952 -0.264645 3.586517 17.518062 -0.098704 6.653407 -3.569058 -1.403979 0.526567 3.630951 10.609783 5.065625 -6.752293 75.817114 3.054811 -2.078802 -0.607790 -3.756100 2.966907 2.906996 -2.229379 1.327617 -7.840664 0.663213 -9.098410 -75.993881 -1.984213 -4.617311 1.034743 4.065541 2.457290 -2.254952 6.819748 14.200308 -0.608796 -2.435574 1.435655 -0.246296 -10.157401 -8.100232 0.811628 0.000000 0.000000 0.000000 0.072706 12.569813 -0.060573 0.325020 5.727401 0.234656 0.976884 -10.314646 0.733431 0.000000 0.000000 0.000000
14.930292 106.459504 194.256987 -116.354063 -9.314870 -0.448669 -1.184978 4.820956 -0.807367 -0.517782 2.144699 -0.346182 -0.517782 2.144699 -0.346182 -0.387076 1.608819 -0.257788 3.577856 17.537092 -0.117453 6.643099 -3.533072 -1.434611 0.494391 3.651975 10.555658 5.124232 -6.688010 75.820559 3.012220 -2.106801 -0.640125 -3.720089 2.977866 2.909393 -2.239320 1.335573 -7.895610 0.665964 -9.109486 -76.047986 -2.059974 -4.600903 1.024247 4.055282 2.445717 -2.223570 6.812059 14.114732 -0.587375 -2.505924 1.468237 -0.253075 -10.118172 -8.080429 0.803598 -0.000000 0.000000 0.000000 0.061062 12.481670 -0.034495 0.310087 5.756907 0.238109 0.967600 -10.300839 0.712869 0.000000 0.000000 0.000000
14.995913 106.463523 194.240612 -116.319537 -9.279284 -0.449116 -1.179431 4.803667 -0.788445 -0.515549 2.136957 -0.337884 -0.515549 2.136957 -0.337884 -0.385435 1.603005 -0.251580 3.569855 17.553761 -0.137057 6.634384 -3.501385 -1.467166 0.461169 3.671693 10.503532 5.171316 -6.626613 75.818474 2.982677 -2.121382 -0.663950 -3.684622 2.987729 2.911075 -2.249234 1.344338 -7.950472 0.668972 -9.118560 -76.097676 -2.111711 -4.595226 1.022001 4.048771 2.438195 -2.194501 6.810230 14.038592 -0.566398 -2.574455 1.495627 -0.258434 -10.083670 -8.059897 0.794260 0.000000 0.000000 0.000000 0.052649 12.403159 -0.009091 0.293433 5.780785 0.239635 0.958187 -10.285117 0.693347 0.000000 0.000000 0.000000
15.058463 106.467632 194.223834 -116.288152 -9.252975 -0.446988 -1.177345 4.792333 -0.772117 -0.514813 2.131875 -0.330686 -0.514813 2.131875 -0.330686 -0.384912 1.599187 -0.246189 3.562919 17.566820 -0.158749 6.628471 -3.476229 -1.504119 0.427199 3.687601 10.453334 5.206572 -6.566470 75.808940 2.969055 -2.114989 -0.676708 -3.649561 2.997007 2.913122 -2.259085 1.354143 -8.004655 0.670350 -9.127324 -76.144097 -2.133471 -4.604840 1.030254 4.047046 2.435630 -2.168157 6.822810 13.976737 -0.544850 -2.648350 1.515631 -0.261332 -10.053341 -8.038232 0.782978 0.000000 0.000000 0.000000 0.046136 12.338983 0.014736 0.277460 5.797146 0.238310 0.948747 -10.266694 0.674734 0.000000 0.000000 0.000000
